<svg xmlns="http://www.w3.org/2000/svg" viewBox="0 0 423.06 348.76"><defs><style>.cls-1{fill:#767c89;}.cls-2{font-size:12px;font-family:MyriadPro-Regular, Myriad Pro;}.cls-12,.cls-2{fill:#231f20;}.cls-3{letter-spacing:-0.03em;}.cls-4{letter-spacing:0em;}.cls-5{letter-spacing:-0.01em;}.cls-6{letter-spacing:0em;}.cls-7{letter-spacing:-0.01em;}.cls-8{letter-spacing:-0.02em;}.cls-14,.cls-9{fill:#fff;}.cls-12,.cls-14,.cls-9{stroke:#231f20;stroke-miterlimit:10;}.cls-10{letter-spacing:-0.01em;}.cls-11{letter-spacing:-0.01em;}.cls-12,.cls-14{stroke-width:2px;}.cls-13{letter-spacing:-0.01em;}</style></defs><title>Artboard 1</title><g id="Layer_2" data-name="Layer 2"><rect class="cls-1" x="62.57" y="15.1" width="346" height="251"/><rect class="cls-1" x="59.61" y="310" width="22.49" height="22.49"/><text class="cls-2" transform="translate(92.66 326.05)"><tspan class="cls-3">W</tspan><tspan class="cls-4" x="9.76" y="0">as</tspan><tspan class="cls-5" x="20.29" y="0">t</tspan><tspan x="24.19" y="0">e </tspan><tspan class="cls-6" x="32.75" y="0">A</tspan><tspan class="cls-7" x="40.06" y="0">r</tspan><tspan x="43.86" y="0">ea</tspan></text><text class="cls-2" transform="translate(26.17 240.27) rotate(-90)"><tspan class="cls-8">W</tspan><tspan x="9.96" y="0">idth</tspan></text><rect class="cls-9" x="166.46" y="310" width="22.49" height="22.49"/><text class="cls-2" transform="translate(199.51 326.05)"><tspan class="cls-10">C</tspan><tspan x="6.82" y="0">ut </tspan><tspan class="cls-6" x="19.94" y="0">A</tspan><tspan class="cls-11" x="27.25" y="0">r</tspan><tspan class="cls-4" x="31.06" y="0">ea</tspan></text><line class="cls-12" x1="31.87" y1="15.1" x2="47.92" y2="15.1"/><line class="cls-12" x1="39.9" y1="15.1" x2="39.9" y2="266.1"/><line class="cls-12" x1="47.92" y1="266.1" x2="31.87" y2="266.1"/><text class="cls-2" transform="translate(352.08 308.99)"><tspan class="cls-13">L</tspan><tspan x="5.5" y="0">ength</tspan></text><line class="cls-12" x1="408.57" y1="279.52" x2="408.57" y2="295.57"/><line class="cls-12" x1="408.57" y1="287.54" x2="62.57" y2="287.54"/><line class="cls-12" x1="62.57" y1="295.57" x2="62.57" y2="279.52"/></g><g id="Layer_1" data-name="Layer 1"><path class="cls-14" d="M280.37,40.06c-1.55-.62-7.16-2.69-9.06-3.49-8.24-3.48-16.54-4.68-25.46-5-22.28-.7-44.68.2-66.89,1.47-12.89.74-25.36,1.43-38.16,3.67-13.7,2.4-27.79,6.37-37.55,16.9-4,4.34-12,18.21-14.69,20.43C76.35,84,70.49,100.55,71.16,116c.42,9.49,2.24,18.84,7.5,26.92S90.41,156.54,98.24,162a76.29,76.29,0,0,0,39.81,13.46c9.64.48,19.26-2.1,27.8-6.41,4.88-2.47,9.09-6.2,13.57-9.31,4.86-3.39,9.82-6.62,14.8-9.83,2.3-1.48,16.68-4.12,17.62-3.27,2.2,2,4.42,3.87,6.47,6,1.13,1.18,2.22,2.4,3.31,3.61l2,2.19c1.75,2,8.37,10.07,7.51,11.39a50.77,50.77,0,0,0,3,7.34c1.59,3.32,3.6,6.36,5.32,9.61,3,5.63,6.23,7.95,8.21,14a68.72,68.72,0,0,0,4,9.6c3.23,6.4,9.63,12.65,15.89,16.12,4.24,2.36,8.12,5.15,12.33,7.52,10.13,5.71,21.39,6,32.66,5.89,17.51-.23,36.72,2.61,52.65-6.35,15.32-8.62,21.56-23.45,27.26-39.07.64-1.76,4.65-12.91,5.66-16.49,2.45-8.72,2.07-17.66,1.88-26.58-.34-16.07-3.29-32.18-12.38-45.83-6.31-9.48-13.38-16-22.73-22.47-5.93-4.09-12.25-7.6-18.3-11.49-6.6-4.25-20.9-13.34-21.43-13.67-3.05-2.13-2.6-2.8-5.78-4.62-7.48-4.29-16.07-5.76-24.59-5.56Z"/></g></svg>